<svg xmlns="http://www.w3.org/2000/svg" xmlns:xlink="http://www.w3.org/1999/xlink" version="1.1" id="Header_x26_Timeline" width="32" height="32" fill="#428bca" viewBox="467.0 496.5 100.0 135.0" enable-background="new 462 506.5 100 100" xml:space="preserve">
<polygon points="541.699,558.238 544.711,544.274 479.289,544.274 482.302,558.238 496.364,558.238 498.839,598.712 490.34,598.712   490.34,605.744 533.66,605.744 533.66,598.712 525.16,598.712 527.635,558.238 " fill="#666"/>
<path d="M511.997,507.256c6.243,0,11.298,5.059,11.298,11.299c0,6.236-5.055,11.294-11.298,11.294  c-6.238,0-11.291-5.058-11.291-11.294C500.706,512.314,505.759,507.256,511.997,507.256"/>
<path d="M521.225,528.861c-2.449,2.196-5.684,3.535-9.228,3.535c-3.54,0-6.773-1.339-9.222-3.535  c-6.578,3.496-11.096,4.582-11.146,12.806h40.742C532.32,533.443,527.805,532.355,521.225,528.861z"/>
<!-- Created by Lissette Arias from the Noun Projecthttp://thenounproject.com/term/lecturer/8076/ -->
</svg>
